<?xml version="1.0" encoding="UTF-8" standalone="no"?>
<!-- Generator: Adobe Illustrator 19.2.1, SVG Export Plug-In . SVG Version: 6.00 Build 0)  -->

<svg
   xmlns:dc="http://purl.org/dc/elements/1.1/"
   xmlns:cc="http://creativecommons.org/ns#"
   xmlns:rdf="http://www.w3.org/1999/02/22-rdf-syntax-ns#"
   xmlns:svg="http://www.w3.org/2000/svg"
   xmlns="http://www.w3.org/2000/svg"
   xmlns:sodipodi="http://sodipodi.sourceforge.net/DTD/sodipodi-0.dtd"
   xmlns:inkscape="http://www.inkscape.org/namespaces/inkscape"
   version="1.1"
   id="Layer_1"
   x="0px"
   y="0px"
   width="92px"
   height="92px"
   viewBox="0 0 92 92"
   enable-background="new 0 0 92 92"
   xml:space="preserve"
   sodipodi:docname="search.svg"
   inkscape:version="0.92.2 5c3e80d, 2017-08-06"><metadata
     id="metadata3768"><rdf:RDF><cc:Work
         rdf:about=""><dc:format>image/svg+xml</dc:format><dc:type
           rdf:resource="http://purl.org/dc/dcmitype/StillImage" /><dc:title></dc:title></cc:Work></rdf:RDF></metadata><defs
     id="defs3766" /><sodipodi:namedview
     pagecolor="#ffffff"
     bordercolor="#666666"
     borderopacity="1"
     objecttolerance="10"
     gridtolerance="10"
     guidetolerance="10"
     inkscape:pageopacity="0"
     inkscape:pageshadow="2"
     inkscape:window-width="2560"
     inkscape:window-height="1396"
     id="namedview3764"
     showgrid="false"
     inkscape:zoom="13.25"
     inkscape:cx="33.962264"
     inkscape:cy="46"
     inkscape:window-x="0"
     inkscape:window-y="0"
     inkscape:window-maximized="1"
     inkscape:current-layer="Layer_1" /><path
     id="XMLID_1102_"
     d="m 33.625,2.2 c 17.1,0 31,14.1 31,31.3 0,7.3 -2.5,13.9 -6.6,19.3 l 29.4,29.8 c 1.7,1.8 1.7,4.6 0,6.3 -0.9,0.9 -2,1.3 -3.1,1.3 -1.2,0 -2.3,-0.4 -3.2,-1.3 l -29.4,-29.8 c -5.1,3.7 -11.3,5.8 -18,5.8 -17.1,0 -31,-14.1 -31,-31.3 0,-17.2 13.8,-31.4 30.9,-31.4 z m 0,54.8 c 12.7,0 23,-10.5 23,-23.4 0,-12.9 -10.3,-23.4 -23,-23.4 -12.7,0 -23,10.5 -23,23.4 0,12.9 10.3,23.4 23,23.4 z"
     inkscape:connector-curvature="0"
     sodipodi:nodetypes="ssccssccssssssss" /></svg>